<?xml version="1.0" encoding="utf-8"?>
<!DOCTYPE svg PUBLIC "-//W3C//DTD SVG 20010904//EN" "http://www.w3.org/TR/2001/REC-SVG-20010904/DTD/svg10.dtd">
<svg version="1.0" xmlns="http://www.w3.org/2000/svg" width="602pt" height="602pt" viewBox="0 0 602 602" style="" preserveAspectRatio="xMidYMid meet">
<g fill="#7C3FE4FF" stroke="#7C3FE4FF">
<path d="M 281.942 1.354 C 281.699 1.576 277.900 2.036 273.500 2.376 C 269.100 2.716 264.600 3.170 263.500 3.386 C 262.400 3.602 259.475 4.056 257.000 4.397 C 252.632 4.997 250.197 5.424 245.000 6.502 C 243.625 6.787 241.375 7.236 240.000 7.500 C 238.625 7.764 236.375 8.251 235.000 8.584 C 233.625 8.916 231.721 9.174 230.770 9.158 C 229.818 9.141 228.791 9.529 228.488 10.020 C 228.184 10.511 227.275 10.659 226.468 10.349 C 225.661 10.040 225.000 10.242 225.000 10.799 C 225.000 11.357 224.100 11.577 223.000 11.290 C 221.900 11.002 221.000 11.227 221.000 11.790 C 221.000 12.352 220.030 12.559 218.844 12.249 C 217.462 11.888 216.924 12.067 217.345 12.749 C 217.759 13.419 217.262 13.620 216.001 13.290 C 214.901 13.002 214.000 13.255 214.000 13.852 C 214.000 14.449 213.325 14.678 212.500 14.362 C 211.675 14.045 211.000 14.270 211.000 14.862 C 211.000 15.453 210.325 15.678 209.500 15.362 C 208.674 15.045 208.000 15.332 208.000 16.000 C 208.000 16.668 207.326 16.955 206.500 16.638 C 205.675 16.322 205.000 16.547 205.000 17.138 C 205.000 17.730 204.325 17.955 203.500 17.638 C 202.675 17.322 202.000 17.547 202.000 18.138 C 202.000 18.730 201.302 18.946 200.448 18.618 C 199.558 18.277 199.157 18.445 199.507 19.011 C 200.064 19.913 199.576 20.094 195.750 20.400 C 195.063 20.455 194.255 20.826 193.957 21.225 C 193.658 21.623 192.533 22.095 191.457 22.274 C 190.380 22.452 188.488 23.154 187.250 23.834 C 186.013 24.514 185.000 24.853 185.000 24.587 C 185.000 24.322 180.759 26.290 175.575 28.961 C 170.392 31.632 165.892 33.559 165.575 33.242 C 165.259 32.926 165.000 33.218 165.000 33.892 C 165.000 34.566 164.550 34.840 164.000 34.500 C 163.450 34.160 163.000 34.385 163.000 35.000 C 163.000 35.615 162.597 35.869 162.105 35.565 C 161.612 35.260 160.934 35.731 160.596 36.609 C 160.236 37.550 159.348 37.964 158.440 37.615 C 157.556 37.276 157.157 37.446 157.507 38.011 C 158.057 38.901 156.735 39.432 154.750 39.118 C 154.338 39.053 154.000 39.477 154.000 40.059 C 154.000 40.641 153.550 40.840 153.000 40.500 C 152.450 40.160 152.000 40.347 152.000 40.915 C 152.000 41.484 150.650 42.647 149.000 43.500 C 147.350 44.353 146.000 44.729 146.000 44.335 C 146.000 43.940 145.339 44.491 144.532 45.559 C 143.724 46.626 143.049 47.145 143.032 46.711 C 143.014 46.277 142.015 46.839 140.812 47.960 C 139.609 49.081 137.359 50.559 135.812 51.243 C 134.265 51.928 133.000 52.828 133.000 53.244 C 133.000 53.660 132.311 54.000 131.469 54.000 C 130.626 54.000 129.679 54.672 129.364 55.494 C 129.048 56.316 128.384 56.738 127.888 56.431 C 127.392 56.124 126.717 56.574 126.388 57.431 C 126.059 58.288 125.418 58.759 124.964 58.478 C 124.509 58.196 123.503 58.871 122.729 59.977 C 121.954 61.083 121.059 61.726 120.740 61.407 C 120.421 61.088 119.336 62.083 118.330 63.619 C 117.313 65.171 116.488 65.765 116.474 64.956 C 116.459 64.128 115.657 64.683 114.615 66.241 C 113.606 67.749 112.403 68.749 111.941 68.464 C 111.479 68.178 110.094 69.307 108.862 70.972 C 107.631 72.637 106.075 74.000 105.405 74.000 C 104.735 74.000 102.287 76.268 99.966 79.040 C 97.646 81.812 95.491 83.824 95.179 83.512 C 94.866 83.199 91.760 85.769 88.276 89.222 C 84.792 92.675 82.489 95.500 83.158 95.500 C 83.827 95.500 82.040 97.454 79.187 99.843 C 76.334 102.232 74.000 104.735 74.000 105.405 C 74.000 106.075 72.538 107.715 70.750 109.048 C 68.879 110.444 68.137 111.479 69.000 111.488 C 69.860 111.497 69.085 112.569 67.183 114.002 C 65.359 115.376 64.601 116.275 65.500 116.000 C 66.399 115.725 65.641 116.624 63.817 117.998 C 61.993 119.373 61.155 120.498 61.956 120.498 C 62.757 120.499 62.180 121.307 60.674 122.294 C 59.168 123.281 58.173 124.471 58.462 124.939 C 58.752 125.407 58.288 126.059 57.431 126.388 C 56.574 126.717 56.124 127.392 56.431 127.888 C 56.738 128.384 56.316 129.048 55.494 129.364 C 54.672 129.679 54.000 130.626 54.000 131.469 C 54.000 132.311 53.660 133.000 53.244 133.000 C 52.828 133.000 51.928 134.265 51.243 135.812 C 50.559 137.359 49.186 139.496 48.193 140.562 C 46.347 142.544 46.000 143.246 46.000 145.000 C 46.000 145.550 45.663 145.947 45.250 145.882 C 44.838 145.816 44.624 145.816 44.776 145.882 C 45.489 146.188 41.822 152.000 40.915 152.000 C 40.347 152.000 40.160 152.450 40.500 153.000 C 40.840 153.550 40.641 154.000 40.059 154.000 C 39.477 154.000 39.053 154.338 39.118 154.750 C 39.432 156.735 38.901 158.057 38.011 157.507 C 37.446 157.157 37.276 157.556 37.615 158.440 C 37.964 159.348 37.550 160.236 36.609 160.596 C 35.731 160.934 35.260 161.612 35.565 162.105 C 35.869 162.597 35.615 163.000 35.000 163.000 C 34.385 163.000 34.160 163.450 34.500 164.000 C 34.840 164.550 34.566 165.000 33.892 165.000 C 33.218 165.000 32.956 165.289 33.310 165.643 C 33.663 165.997 32.052 169.934 29.730 174.393 C 27.408 178.852 25.619 182.838 25.754 183.250 C 25.889 183.663 25.646 184.000 25.213 184.000 C 24.780 184.000 24.350 185.006 24.257 186.235 C 24.165 187.465 23.644 188.619 23.101 188.800 C 22.557 188.981 22.338 189.717 22.614 190.436 C 22.889 191.154 22.527 192.363 21.808 193.121 C 21.088 193.879 20.455 195.063 20.400 195.750 C 20.095 199.560 19.921 200.069 19.093 199.558 C 18.595 199.249 18.440 199.968 18.751 201.155 C 19.112 202.538 18.933 203.076 18.251 202.655 C 17.569 202.234 17.389 202.772 17.751 204.155 C 18.135 205.623 17.949 206.086 17.169 205.604 C 16.426 205.145 16.232 205.442 16.618 206.448 C 16.955 207.325 16.686 208.000 16.000 208.000 C 15.332 208.000 15.045 208.674 15.362 209.500 C 15.678 210.325 15.453 211.000 14.862 211.000 C 14.270 211.000 14.045 211.675 14.362 212.500 C 14.678 213.325 14.449 214.000 13.852 214.000 C 13.255 214.000 13.002 214.901 13.290 216.001 C 13.620 217.262 13.419 217.759 12.749 217.345 C 12.067 216.924 11.888 217.462 12.249 218.844 C 12.559 220.030 12.352 221.000 11.790 221.000 C 11.227 221.000 11.002 221.900 11.290 223.000 C 11.577 224.100 11.375 225.000 10.839 225.000 C 10.303 225.000 10.151 225.900 10.500 227.000 C 10.849 228.100 10.682 229.000 10.130 229.000 C 9.577 229.000 9.127 229.788 9.129 230.750 C 9.134 232.523 8.639 235.458 7.569 240.000 C 6.892 242.872 5.968 247.591 5.513 250.500 C 5.341 251.600 4.927 254.075 4.594 256.000 C 2.285 269.331 1.500 280.751 1.500 301.000 C 1.500 318.301 2.216 332.531 3.386 338.500 C 3.602 339.600 4.054 342.525 4.391 345.000 C 4.728 347.475 5.232 350.625 5.512 352.000 C 5.792 353.375 6.239 355.625 6.506 357.000 C 7.600 362.638 8.012 364.620 8.586 367.000 C 8.917 368.375 9.174 370.279 9.158 371.230 C 9.141 372.182 9.529 373.209 10.020 373.512 C 10.511 373.816 10.659 374.725 10.349 375.532 C 10.040 376.339 10.242 377.000 10.799 377.000 C 11.357 377.000 11.577 377.900 11.290 379.000 C 11.002 380.100 11.157 381.001 11.633 381.002 C 12.110 381.004 12.553 382.446 12.617 384.208 C 12.681 385.970 13.218 387.573 13.811 387.770 C 14.403 387.968 14.640 388.775 14.337 389.565 C 14.034 390.354 14.270 391.000 14.862 391.000 C 15.453 391.000 15.678 391.675 15.362 392.500 C 15.045 393.326 15.332 394.000 16.000 394.000 C 16.668 394.000 16.955 394.674 16.638 395.500 C 16.322 396.325 16.547 397.000 17.138 397.000 C 17.730 397.000 17.955 397.675 17.638 398.500 C 17.322 399.325 17.536 400.000 18.115 400.000 C 18.693 400.000 18.981 400.558 18.753 401.241 C 18.525 401.924 18.964 403.107 19.727 403.870 C 20.490 404.633 20.889 405.846 20.614 406.564 C 20.338 407.283 20.524 408.012 21.027 408.185 C 21.530 408.358 22.090 409.400 22.270 410.500 C 22.450 411.600 23.154 413.513 23.834 414.750 C 24.514 415.988 24.863 417.000 24.610 417.000 C 24.357 417.000 26.135 420.938 28.560 425.750 C 30.986 430.563 32.977 435.063 32.985 435.750 C 32.993 436.438 33.477 437.000 34.059 437.000 C 34.641 437.000 34.840 437.450 34.500 438.000 C 34.160 438.550 34.385 439.000 35.000 439.000 C 35.615 439.000 35.840 439.450 35.500 440.000 C 35.160 440.550 35.385 441.000 36.000 441.000 C 36.615 441.000 36.840 441.450 36.500 442.000 C 36.160 442.550 36.385 443.000 37.000 443.000 C 37.615 443.000 37.869 443.403 37.565 443.895 C 37.260 444.388 37.712 445.059 38.569 445.388 C 39.426 445.717 39.847 446.439 39.504 446.993 C 39.162 447.547 39.385 448.000 40.000 448.000 C 40.615 448.000 40.840 448.450 40.500 449.000 C 40.160 449.550 40.434 450.000 41.108 450.000 C 41.782 450.000 42.071 450.262 41.750 450.583 C 41.429 450.904 42.046 452.046 43.120 453.120 C 44.194 454.194 44.805 455.507 44.477 456.036 C 44.150 456.566 44.359 457.000 44.941 457.000 C 45.523 457.000 46.000 457.469 46.000 458.042 C 46.000 458.615 46.900 460.050 48.000 461.230 C 49.100 462.411 50.000 463.967 50.000 464.689 C 50.000 465.410 50.450 466.000 51.000 466.000 C 51.550 466.000 52.000 466.675 52.000 467.500 C 52.000 468.325 52.450 469.000 53.000 469.000 C 53.550 469.000 54.000 469.609 54.000 470.354 C 54.000 471.099 55.104 472.899 56.452 474.354 C 57.801 475.809 58.588 477.015 58.202 477.033 C 57.816 477.052 58.562 477.952 59.861 479.033 C 61.159 480.115 61.834 481.015 61.361 481.033 C 60.887 481.052 61.562 481.952 62.861 483.033 C 64.159 484.115 64.834 485.015 64.361 485.033 C 63.887 485.052 64.625 486.002 66.000 487.146 C 67.375 488.290 68.500 489.587 68.500 490.029 C 68.500 490.472 69.691 492.108 71.146 493.667 C 72.601 495.225 75.751 498.732 78.146 501.460 C 83.724 507.814 94.186 518.276 100.540 523.854 C 103.268 526.249 106.775 529.399 108.333 530.854 C 109.892 532.309 111.528 533.500 111.971 533.500 C 112.413 533.500 113.710 534.625 114.854 536.000 C 115.998 537.375 116.948 538.113 116.967 537.639 C 116.985 537.166 117.885 537.841 118.967 539.139 C 120.048 540.438 120.948 541.113 120.967 540.639 C 120.985 540.166 121.885 540.841 122.967 542.139 C 124.048 543.438 124.948 544.184 124.967 543.798 C 124.985 543.412 126.191 544.199 127.646 545.548 C 129.101 546.896 130.901 548.000 131.646 548.000 C 132.391 548.000 133.000 548.450 133.000 549.000 C 133.000 549.550 133.638 550.000 134.417 550.000 C 135.196 550.000 135.983 550.338 136.167 550.750 C 136.708 551.967 145.307 557.671 147.750 558.433 C 148.988 558.819 150.000 559.581 150.000 560.126 C 150.000 560.672 150.450 560.840 151.000 560.500 C 151.550 560.160 152.000 560.385 152.000 561.000 C 152.000 561.615 152.450 561.840 153.000 561.500 C 153.550 561.160 154.000 561.385 154.000 562.000 C 154.000 562.615 154.403 562.869 154.895 562.565 C 155.388 562.260 156.059 562.712 156.388 563.569 C 156.717 564.426 157.439 564.847 157.993 564.504 C 158.547 564.162 159.000 564.385 159.000 565.000 C 159.000 565.615 159.450 565.840 160.000 565.500 C 160.550 565.160 161.000 565.385 161.000 566.000 C 161.000 566.615 161.450 566.840 162.000 566.500 C 162.550 566.160 163.000 566.328 163.000 566.874 C 163.000 567.419 164.013 568.183 165.250 568.571 C 166.488 568.959 171.550 571.176 176.500 573.498 C 192.253 580.888 194.933 582.000 196.989 582.000 C 198.095 582.000 199.000 582.436 199.000 582.969 C 199.000 583.501 199.675 583.678 200.500 583.362 C 201.325 583.045 202.000 583.270 202.000 583.862 C 202.000 584.453 202.675 584.678 203.500 584.362 C 204.326 584.045 205.000 584.332 205.000 585.000 C 205.000 585.668 205.674 585.955 206.500 585.638 C 207.325 585.322 208.000 585.547 208.000 586.138 C 208.000 586.730 208.675 586.955 209.500 586.638 C 210.325 586.322 211.000 586.547 211.000 587.138 C 211.000 587.730 211.646 587.966 212.435 587.663 C 213.225 587.360 214.017 587.550 214.195 588.085 C 214.373 588.620 215.865 589.157 217.510 589.279 C 219.154 589.400 220.742 589.821 221.037 590.214 C 221.332 590.607 223.132 591.157 225.037 591.436 C 228.482 591.942 229.227 592.100 234.000 593.333 C 235.375 593.688 237.741 594.180 239.259 594.425 C 240.776 594.670 242.801 595.099 243.759 595.377 C 244.716 595.656 247.075 596.117 249.000 596.402 C 256.583 597.525 260.607 598.146 263.000 598.561 C 278.117 601.183 323.883 601.183 339.000 598.561 C 341.367 598.151 344.066 597.735 352.750 596.442 C 354.813 596.135 357.284 595.656 358.241 595.377 C 359.199 595.099 361.224 594.670 362.741 594.425 C 364.259 594.180 366.625 593.688 368.000 593.333 C 372.773 592.100 373.518 591.942 376.963 591.436 C 378.868 591.157 380.668 590.607 380.963 590.214 C 381.258 589.821 382.846 589.400 384.490 589.279 C 386.135 589.157 387.627 588.620 387.805 588.085 C 387.983 587.550 388.775 587.360 389.565 587.663 C 390.354 587.966 391.000 587.730 391.000 587.138 C 391.000 586.547 391.675 586.322 392.500 586.638 C 393.325 586.955 394.000 586.730 394.000 586.138 C 394.000 585.547 394.675 585.322 395.500 585.638 C 396.326 585.955 397.000 585.668 397.000 585.000 C 397.000 584.332 397.674 584.045 398.500 584.362 C 399.325 584.678 400.000 584.453 400.000 583.862 C 400.000 583.270 400.646 583.034 401.435 583.337 C 402.225 583.640 403.012 583.489 403.185 583.003 C 403.358 582.516 404.708 581.901 406.184 581.637 C 409.014 581.130 411.018 580.286 425.500 573.496 C 430.450 571.175 435.513 568.959 436.750 568.571 C 437.988 568.183 439.000 567.419 439.000 566.874 C 439.000 566.328 439.450 566.160 440.000 566.500 C 440.550 566.840 441.000 566.615 441.000 566.000 C 441.000 565.385 441.450 565.160 442.000 565.500 C 442.550 565.840 443.000 565.615 443.000 565.000 C 443.000 564.385 443.453 564.162 444.007 564.504 C 444.561 564.847 445.283 564.426 445.612 563.569 C 445.941 562.712 446.612 562.260 447.105 562.565 C 447.597 562.869 448.000 562.615 448.000 562.000 C 448.000 561.385 448.450 561.160 449.000 561.500 C 449.550 561.840 450.000 561.615 450.000 561.000 C 450.000 560.385 450.450 560.160 451.000 560.500 C 451.550 560.840 452.000 560.672 452.000 560.126 C 452.000 559.581 453.013 558.819 454.250 558.433 C 456.693 557.671 465.292 551.967 465.833 550.750 C 466.017 550.338 466.804 550.000 467.583 550.000 C 468.363 550.000 469.000 549.550 469.000 549.000 C 469.000 548.450 469.609 548.000 470.354 548.000 C 471.099 548.000 472.899 546.896 474.354 545.548 C 475.809 544.199 477.015 543.412 477.033 543.798 C 477.052 544.184 477.952 543.438 479.033 542.139 C 480.115 540.841 481.015 540.166 481.033 540.639 C 481.052 541.113 481.896 540.507 482.909 539.293 C 483.923 538.078 485.001 537.335 485.307 537.640 C 485.612 537.945 486.451 537.251 487.171 536.097 C 487.892 534.944 488.973 534.000 489.575 534.000 C 490.177 534.000 491.822 532.763 493.230 531.250 C 494.638 529.738 498.200 526.475 501.145 524.000 C 507.998 518.242 518.242 507.998 524.000 501.145 C 526.475 498.200 529.725 494.650 531.222 493.255 C 532.719 491.860 533.736 490.381 533.481 489.969 C 533.226 489.556 534.177 488.459 535.595 487.529 C 537.013 486.600 537.929 485.595 537.629 485.296 C 537.330 484.997 538.078 483.923 539.293 482.909 C 540.507 481.896 541.113 481.052 540.639 481.033 C 540.166 481.015 540.841 480.115 542.139 479.033 C 543.438 477.952 544.184 477.052 543.798 477.033 C 543.412 477.015 544.199 475.809 545.548 474.354 C 546.896 472.899 548.000 471.099 548.000 470.354 C 548.000 469.609 548.450 469.000 549.000 469.000 C 549.550 469.000 550.000 468.363 550.000 467.583 C 550.000 466.804 550.338 466.017 550.750 465.833 C 551.967 465.292 557.671 456.693 558.433 454.250 C 558.819 453.013 559.581 452.000 560.126 452.000 C 560.672 452.000 560.840 451.550 560.500 451.000 C 560.160 450.450 560.385 450.000 561.000 450.000 C 561.615 450.000 561.840 449.550 561.500 449.000 C 561.160 448.450 561.385 448.000 562.000 448.000 C 562.615 448.000 562.869 447.597 562.565 447.105 C 562.260 446.612 562.712 445.941 563.569 445.612 C 564.426 445.283 564.847 444.561 564.504 444.007 C 564.162 443.453 564.385 443.000 565.000 443.000 C 565.615 443.000 565.840 442.550 565.500 442.000 C 565.160 441.450 565.385 441.000 566.000 441.000 C 566.615 441.000 566.840 440.550 566.500 440.000 C 566.160 439.450 566.385 439.000 567.000 439.000 C 567.615 439.000 567.840 438.550 567.500 438.000 C 567.160 437.450 567.359 437.000 567.941 437.000 C 568.523 437.000 569.000 436.558 569.000 436.017 C 569.000 435.477 570.961 430.864 573.358 425.767 C 580.247 411.117 581.126 409.036 581.637 406.184 C 581.901 404.708 582.516 403.358 583.003 403.185 C 583.489 403.012 583.640 402.225 583.337 401.435 C 583.034 400.646 583.270 400.000 583.862 400.000 C 584.453 400.000 584.678 399.325 584.362 398.500 C 584.045 397.674 584.332 397.000 585.000 397.000 C 585.668 397.000 585.955 396.326 585.638 395.500 C 585.322 394.675 585.547 394.000 586.138 394.000 C 586.730 394.000 586.955 393.325 586.638 392.500 C 586.322 391.675 586.547 391.000 587.138 391.000 C 587.730 391.000 587.966 390.354 587.663 389.565 C 587.360 388.775 587.550 387.983 588.085 387.805 C 588.620 387.627 589.157 386.135 589.279 384.490 C 589.400 382.846 589.821 381.258 590.214 380.963 C 590.607 380.668 591.157 378.868 591.436 376.963 C 592.032 372.909 592.392 371.230 593.253 368.500 C 593.600 367.400 594.129 364.925 594.429 363.000 C 594.730 361.075 595.202 358.375 595.479 357.000 C 595.757 355.625 596.211 353.375 596.490 352.000 C 596.769 350.625 597.272 347.475 597.609 345.000 C 597.946 342.525 598.398 339.600 598.614 338.500 C 601.137 325.631 601.137 276.369 598.614 263.500 C 598.398 262.400 597.944 259.475 597.603 257.000 C 596.996 252.578 596.536 249.967 595.490 245.000 C 595.201 243.625 594.721 240.925 594.424 239.000 C 594.127 237.075 593.600 234.600 593.253 233.500 C 592.392 230.770 592.032 229.091 591.436 225.037 C 591.157 223.132 590.607 221.332 590.214 221.037 C 589.821 220.742 589.400 219.154 589.279 217.510 C 589.157 215.865 588.620 214.373 588.085 214.195 C 587.550 214.017 587.360 213.225 587.663 212.435 C 587.966 211.646 587.730 211.000 587.138 211.000 C 586.547 211.000 586.322 210.325 586.638 209.500 C 586.955 208.675 586.730 208.000 586.138 208.000 C 585.547 208.000 585.322 207.325 585.638 206.500 C 585.955 205.674 585.668 205.000 585.000 205.000 C 584.332 205.000 584.045 204.326 584.362 203.500 C 584.678 202.675 584.453 202.000 583.862 202.000 C 583.270 202.000 583.045 201.325 583.362 200.500 C 583.678 199.675 583.501 199.000 582.969 199.000 C 582.436 199.000 582.000 198.095 582.000 196.989 C 582.000 194.845 580.348 190.852 573.524 176.500 C 571.171 171.550 568.935 166.488 568.555 165.250 C 568.176 164.013 567.419 163.000 566.874 163.000 C 566.328 163.000 566.160 162.550 566.500 162.000 C 566.840 161.450 566.615 161.000 566.000 161.000 C 565.385 161.000 565.160 160.550 565.500 160.000 C 565.840 159.450 565.615 159.000 565.000 159.000 C 564.385 159.000 564.118 158.618 564.406 158.151 C 564.695 157.685 564.073 156.383 563.026 155.258 C 561.978 154.133 561.393 152.940 561.727 152.606 C 562.060 152.273 561.782 152.000 561.108 152.000 C 560.434 152.000 560.160 151.550 560.500 151.000 C 560.840 150.450 560.672 150.000 560.126 150.000 C 559.581 150.000 558.819 148.988 558.433 147.750 C 557.671 145.307 551.967 136.708 550.750 136.167 C 550.338 135.983 550.000 135.196 550.000 134.417 C 550.000 133.638 549.550 133.000 549.000 133.000 C 548.450 133.000 548.000 132.391 548.000 131.646 C 548.000 130.901 546.896 129.101 545.548 127.646 C 544.199 126.191 543.412 124.985 543.798 124.967 C 544.184 124.948 543.438 124.048 542.139 122.967 C 540.841 121.885 540.166 120.985 540.639 120.967 C 541.113 120.948 540.507 120.104 539.293 119.091 C 538.078 118.077 537.335 116.999 537.640 116.693 C 537.945 116.388 537.251 115.549 536.097 114.829 C 534.944 114.108 534.000 113.027 534.000 112.425 C 534.000 111.823 532.763 110.178 531.250 108.770 C 529.738 107.362 526.475 103.800 524.000 100.855 C 518.242 94.002 507.998 83.758 501.145 78.000 C 498.200 75.525 494.638 72.263 493.230 70.750 C 491.822 69.238 490.177 68.000 489.575 68.000 C 488.973 68.000 487.892 67.056 487.171 65.903 C 486.451 64.749 485.612 64.055 485.307 64.360 C 485.001 64.665 483.923 63.922 482.909 62.707 C 481.896 61.493 481.052 60.887 481.033 61.361 C 481.015 61.834 480.115 61.159 479.033 59.861 C 477.952 58.562 477.052 57.816 477.033 58.202 C 477.015 58.588 475.809 57.801 474.354 56.452 C 472.899 55.104 471.099 54.000 470.354 54.000 C 469.609 54.000 469.000 53.550 469.000 53.000 C 469.000 52.450 468.363 52.000 467.583 52.000 C 466.804 52.000 466.017 51.663 465.833 51.250 C 465.292 50.033 456.693 44.329 454.250 43.567 C 453.013 43.181 452.000 42.419 452.000 41.874 C 452.000 41.328 451.550 41.160 451.000 41.500 C 450.450 41.840 450.000 41.615 450.000 41.000 C 450.000 40.385 449.550 40.160 449.000 40.500 C 448.450 40.840 448.000 40.615 448.000 40.000 C 448.000 39.385 447.597 39.131 447.105 39.435 C 446.612 39.740 445.941 39.288 445.612 38.431 C 445.283 37.574 444.561 37.153 444.007 37.496 C 443.453 37.838 443.000 37.615 443.000 37.000 C 443.000 36.385 442.550 36.160 442.000 36.500 C 441.450 36.840 441.000 36.615 441.000 36.000 C 441.000 35.385 440.550 35.160 440.000 35.500 C 439.450 35.840 439.000 35.615 439.000 35.000 C 439.000 34.385 438.550 34.160 438.000 34.500 C 437.450 34.840 437.000 34.641 437.000 34.059 C 437.000 33.477 436.524 33.000 435.943 33.000 C 435.362 33.000 430.525 30.919 425.193 28.375 C 419.862 25.831 414.600 23.397 413.500 22.966 C 409.106 21.242 407.414 20.683 405.500 20.321 C 404.400 20.113 403.358 19.530 403.185 19.027 C 403.012 18.524 402.225 18.360 401.435 18.663 C 400.646 18.966 400.000 18.730 400.000 18.138 C 400.000 17.547 399.325 17.322 398.500 17.638 C 397.675 17.955 397.000 17.730 397.000 17.138 C 397.000 16.547 396.325 16.322 395.500 16.638 C 394.674 16.955 394.000 16.668 394.000 16.000 C 394.000 15.332 393.326 15.045 392.500 15.362 C 391.675 15.678 391.000 15.453 391.000 14.862 C 391.000 14.270 390.354 14.034 389.565 14.337 C 388.775 14.640 387.983 14.450 387.805 13.915 C 387.627 13.380 386.135 12.843 384.490 12.721 C 382.846 12.600 381.252 12.169 380.949 11.763 C 380.646 11.358 379.051 10.879 377.404 10.699 C 375.757 10.519 373.837 10.018 373.138 9.585 C 372.439 9.153 371.613 9.054 371.302 9.365 C 370.991 9.675 370.009 9.546 369.119 9.078 C 368.228 8.609 365.700 7.962 363.500 7.641 C 361.300 7.319 358.375 6.814 357.000 6.518 C 352.069 5.456 345.214 4.312 339.000 3.514 C 336.525 3.196 332.925 2.692 331.000 2.394 C 326.699 1.728 282.555 0.793 281.942 1.354 M 390.004 145.580 C 391.931 146.636 394.907 148.499 396.617 149.720 C 398.327 150.942 400.012 151.654 400.363 151.304 C 400.713 150.953 401.000 151.218 401.000 151.892 C 401.000 152.566 401.450 152.840 402.000 152.500 C 402.550 152.160 403.000 152.434 403.000 153.108 C 403.000 153.782 403.263 154.071 403.583 153.750 C 403.904 153.429 405.046 154.046 406.120 155.120 C 407.194 156.194 408.507 156.805 409.036 156.477 C 409.566 156.150 410.000 156.262 410.000 156.725 C 410.000 157.189 411.350 158.366 413.000 159.341 C 414.650 160.316 416.000 160.830 416.000 160.485 C 416.000 160.140 416.707 160.564 417.571 161.429 C 418.436 162.293 419.786 163.000 420.571 163.000 C 421.357 163.000 422.000 163.406 422.000 163.902 C 422.000 164.398 423.238 165.299 424.750 165.903 C 426.263 166.507 429.075 167.971 431.000 169.155 C 432.925 170.340 435.400 171.827 436.500 172.459 C 437.600 173.091 440.300 174.708 442.500 176.052 C 444.700 177.397 446.838 178.385 447.250 178.248 C 447.663 178.112 448.000 178.525 448.000 179.167 C 448.000 179.808 448.263 180.071 448.583 179.750 C 448.904 179.429 450.046 180.046 451.120 181.120 C 452.194 182.194 453.507 182.805 454.036 182.477 C 454.566 182.150 455.000 182.304 455.000 182.820 C 455.000 183.335 456.463 184.349 458.250 185.072 C 460.038 185.795 461.732 186.718 462.016 187.124 C 462.300 187.529 465.096 189.209 468.230 190.858 C 475.280 194.566 477.383 196.554 478.851 200.899 C 479.658 203.288 479.998 219.786 479.993 256.399 C 479.987 305.170 479.870 308.677 478.160 311.270 C 475.695 315.008 472.796 317.612 470.173 318.445 C 468.978 318.824 468.000 319.554 468.000 320.067 C 468.000 320.580 467.663 320.947 467.250 320.882 C 465.472 320.601 464.244 321.124 462.189 323.039 C 460.985 324.160 460.000 324.810 460.000 324.482 C 460.000 324.155 458.650 324.684 457.000 325.659 C 455.350 326.634 454.000 327.811 454.000 328.275 C 454.000 328.738 453.550 328.840 453.000 328.500 C 452.450 328.160 452.000 328.359 452.000 328.941 C 452.000 329.523 451.663 329.904 451.250 329.788 C 450.454 329.562 445.843 331.873 445.000 332.920 C 444.725 333.261 443.375 334.098 442.000 334.778 C 439.669 335.933 438.294 336.743 429.750 341.999 C 427.963 343.099 425.263 344.493 423.750 345.097 C 422.238 345.701 421.000 346.628 421.000 347.157 C 421.000 347.685 420.618 347.882 420.151 347.594 C 419.685 347.305 418.383 347.927 417.258 348.974 C 416.133 350.022 414.940 350.607 414.606 350.273 C 414.273 349.940 414.000 350.267 414.000 351.000 C 414.000 351.733 413.727 352.060 413.394 351.727 C 413.060 351.393 411.867 351.978 410.742 353.026 C 409.617 354.073 408.315 354.695 407.849 354.406 C 407.382 354.118 407.000 354.385 407.000 355.000 C 407.000 355.615 406.550 355.840 406.000 355.500 C 405.450 355.160 405.000 355.260 405.000 355.722 C 405.000 356.184 403.763 357.102 402.250 357.763 C 400.738 358.423 398.150 359.840 396.500 360.912 C 389.403 365.520 384.324 367.698 381.000 367.559 C 377.926 367.431 370.393 364.523 369.000 362.927 C 368.725 362.612 367.825 362.059 367.000 361.698 C 366.175 361.338 363.700 359.905 361.500 358.515 C 359.300 357.125 355.925 355.265 354.000 354.381 C 352.075 353.498 350.169 352.263 349.765 351.638 C 349.361 351.012 349.024 350.833 349.015 351.240 C 349.007 351.647 348.085 351.197 346.968 350.240 C 345.850 349.283 344.663 348.651 344.329 348.835 C 342.541 349.826 342.029 344.405 342.015 324.309 C 342.006 310.577 342.381 301.882 343.000 301.500 C 343.550 301.160 344.000 301.434 344.000 302.108 C 344.000 302.782 344.263 303.070 344.585 302.749 C 344.906 302.427 345.918 302.806 346.835 303.590 C 347.751 304.375 348.900 304.974 349.388 304.923 C 349.877 304.871 350.552 305.235 350.888 305.731 C 351.225 306.226 354.200 308.177 357.500 310.066 C 360.800 311.955 364.400 314.058 365.500 314.739 C 366.600 315.421 368.738 316.532 370.250 317.209 C 371.763 317.885 373.000 318.816 373.000 319.278 C 373.000 319.740 373.450 319.840 374.000 319.500 C 374.550 319.160 375.000 319.434 375.000 320.108 C 375.000 320.782 375.273 321.060 375.606 320.727 C 375.940 320.393 377.114 320.960 378.216 321.987 C 380.177 323.813 383.000 323.723 383.000 321.834 C 383.000 321.310 383.450 321.160 384.000 321.500 C 384.550 321.840 385.000 321.615 385.000 321.000 C 385.000 320.385 385.450 320.160 386.000 320.500 C 386.550 320.840 387.000 320.690 387.000 320.167 C 387.000 319.645 388.125 318.934 389.500 318.589 C 390.875 318.244 392.000 317.494 392.000 316.922 C 392.000 316.350 392.450 316.160 393.000 316.500 C 393.550 316.840 394.000 316.641 394.000 316.059 C 394.000 315.477 394.643 315.000 395.429 315.000 C 396.214 315.000 397.452 314.432 398.179 313.738 C 398.905 313.044 400.625 311.915 402.000 311.228 C 403.375 310.541 405.850 309.085 407.500 307.992 C 409.150 306.900 411.738 305.511 413.250 304.905 C 414.763 304.300 416.000 303.372 416.000 302.843 C 416.000 302.315 416.450 302.160 417.000 302.500 C 417.550 302.840 418.000 302.615 418.000 302.000 C 418.000 301.385 418.453 301.162 419.007 301.504 C 419.561 301.847 420.283 301.426 420.612 300.569 C 420.941 299.712 421.612 299.260 422.105 299.565 C 422.597 299.869 423.000 299.566 423.000 298.892 C 423.000 298.218 423.273 297.940 423.606 298.273 C 423.940 298.607 425.133 298.022 426.258 296.974 C 427.383 295.927 428.685 295.305 429.151 295.594 C 429.618 295.882 430.000 295.615 430.000 295.000 C 430.000 294.385 430.399 294.129 430.887 294.430 C 431.374 294.731 432.329 294.308 433.009 293.489 C 433.689 292.670 434.833 292.000 435.551 292.000 C 436.269 292.000 437.564 291.293 438.429 290.429 C 439.796 289.061 440.000 284.392 440.000 254.404 L 440.000 219.950 437.750 218.993 C 436.513 218.466 433.700 216.892 431.500 215.495 C 429.300 214.098 426.263 212.417 424.750 211.758 C 423.238 211.100 422.000 210.184 422.000 209.722 C 422.000 209.260 421.550 209.160 421.000 209.500 C 420.450 209.840 420.000 209.738 420.000 209.275 C 420.000 208.811 418.650 207.634 417.000 206.659 C 415.350 205.684 414.000 205.155 414.000 205.482 C 414.000 205.810 413.015 205.160 411.811 204.039 C 409.756 202.124 408.528 201.601 406.750 201.882 C 406.338 201.947 406.000 201.647 406.000 201.215 C 406.000 200.783 403.413 199.096 400.250 197.465 C 397.088 195.834 394.275 194.275 394.000 194.000 C 392.994 192.994 389.413 190.920 386.000 189.368 C 384.075 188.492 382.128 187.263 381.674 186.638 C 381.068 185.803 380.712 185.834 380.338 186.756 C 380.058 187.447 379.418 187.758 378.915 187.447 C 378.412 187.136 378.000 187.359 378.000 187.941 C 378.000 188.523 377.427 189.000 376.727 189.000 C 376.027 189.000 373.199 190.463 370.442 192.250 C 367.685 194.038 363.420 196.579 360.965 197.899 C 358.509 199.218 355.790 200.905 354.921 201.649 C 354.053 202.392 352.815 203.000 352.171 203.000 C 351.527 203.000 351.000 203.477 351.000 204.059 C 351.000 204.641 350.550 204.840 350.000 204.500 C 349.450 204.160 349.000 204.385 349.000 205.000 C 349.000 205.615 348.550 205.840 348.000 205.500 C 347.450 205.160 347.000 205.359 347.000 205.941 C 347.000 206.523 346.325 207.000 345.500 207.000 C 344.675 207.000 344.000 207.477 344.000 208.059 C 344.000 208.641 343.550 208.840 343.000 208.500 C 342.450 208.160 342.000 208.385 342.000 209.000 C 342.000 209.615 341.550 209.840 341.000 209.500 C 340.450 209.160 340.000 209.350 340.000 209.922 C 340.000 210.494 338.875 211.244 337.500 211.589 C 336.125 211.934 335.000 212.645 335.000 213.167 C 335.000 213.690 334.550 213.840 334.000 213.500 C 333.450 213.160 333.000 213.310 333.000 213.833 C 333.000 214.355 331.875 215.066 330.500 215.411 C 329.125 215.756 328.000 216.480 328.000 217.019 C 328.000 217.559 327.394 218.000 326.653 218.000 C 325.912 218.000 324.329 218.847 323.136 219.882 L 320.965 221.765 321.026 310.848 C 321.082 392.359 320.945 400.210 319.408 403.215 C 318.485 405.022 317.228 406.840 316.615 407.255 C 312.479 410.057 307.087 413.167 304.750 414.099 C 303.238 414.702 302.000 415.602 302.000 416.098 C 302.000 416.594 301.357 417.000 300.571 417.000 C 299.786 417.000 298.548 417.595 297.821 418.321 C 296.503 419.640 295.723 420.000 294.189 420.000 C 293.742 420.000 292.392 420.918 291.189 422.039 C 289.985 423.160 289.000 423.810 289.000 423.482 C 289.000 423.155 287.650 423.684 286.000 424.659 C 284.350 425.634 283.000 426.811 283.000 427.275 C 283.000 427.738 282.550 427.840 282.000 427.500 C 281.450 427.160 281.000 427.260 281.000 427.722 C 281.000 428.184 279.763 429.107 278.250 429.773 C 274.886 431.255 264.774 437.081 262.880 438.628 C 262.121 439.248 260.488 440.066 259.250 440.445 C 258.013 440.824 257.000 441.581 257.000 442.126 C 257.000 442.672 256.550 442.840 256.000 442.500 C 255.450 442.160 255.000 442.359 255.000 442.941 C 255.000 443.523 254.325 444.000 253.500 444.000 C 252.675 444.000 252.000 444.477 252.000 445.059 C 252.000 445.641 251.550 445.840 251.000 445.500 C 250.450 445.160 250.000 445.434 250.000 446.108 C 250.000 446.782 249.727 447.060 249.394 446.727 C 249.060 446.393 247.867 446.978 246.742 448.026 C 245.617 449.073 244.315 449.695 243.849 449.406 C 243.382 449.118 243.000 449.385 243.000 450.000 C 243.000 450.615 242.550 450.840 242.000 450.500 C 241.450 450.160 241.000 450.328 241.000 450.874 C 241.000 451.419 239.988 452.181 238.750 452.567 C 237.513 452.954 236.275 453.577 236.000 453.954 C 234.945 455.397 225.349 459.481 222.265 459.798 C 219.443 460.089 209.852 456.123 208.000 453.900 C 207.131 452.856 202.532 450.566 201.750 450.788 C 201.338 450.904 201.000 450.523 201.000 449.941 C 201.000 449.359 200.550 449.160 200.000 449.500 C 199.450 449.840 199.000 449.738 199.000 449.275 C 199.000 448.811 197.650 447.634 196.000 446.659 C 194.350 445.684 193.000 445.155 193.000 445.482 C 193.000 445.810 192.015 445.160 190.811 444.039 C 188.833 442.196 188.230 441.918 186.464 442.036 C 186.170 442.055 185.237 441.380 184.393 440.536 C 183.548 439.691 182.214 439.000 181.429 439.000 C 180.643 439.000 180.000 438.594 180.000 438.098 C 180.000 437.602 178.763 436.700 177.250 436.095 C 175.738 435.489 173.150 434.088 171.500 432.981 C 169.850 431.874 166.813 430.232 164.750 429.333 C 162.688 428.433 161.000 427.288 161.000 426.789 C 161.000 426.290 160.550 426.160 160.000 426.500 C 159.450 426.840 159.000 426.615 159.000 426.000 C 159.000 425.385 158.547 425.162 157.993 425.504 C 157.439 425.847 156.717 425.426 156.388 424.569 C 156.059 423.712 155.388 423.260 154.895 423.565 C 154.403 423.869 154.000 423.566 154.000 422.892 C 154.000 422.218 153.738 421.929 153.417 422.250 C 153.096 422.571 151.954 421.954 150.880 420.880 C 149.806 419.806 148.493 419.195 147.964 419.523 C 147.434 419.850 147.000 419.696 147.000 419.180 C 147.000 418.665 145.538 417.645 143.750 416.914 C 141.963 416.183 139.905 415.003 139.179 414.292 C 138.452 413.582 137.214 413.000 136.429 413.000 C 135.643 413.000 135.000 412.559 135.000 412.019 C 135.000 411.480 133.875 410.756 132.500 410.411 C 131.125 410.066 130.000 409.307 130.000 408.725 C 130.000 408.143 129.704 407.963 129.342 408.325 C 128.300 409.367 126.014 406.968 124.424 403.164 C 123.202 400.240 122.979 391.049 123.056 346.835 C 123.163 286.032 123.049 291.000 124.333 291.000 C 124.883 291.000 125.029 290.696 124.658 290.324 C 123.762 289.429 128.045 284.910 129.145 285.590 C 129.615 285.880 130.000 285.690 130.000 285.167 C 130.000 284.645 131.125 283.934 132.500 283.589 C 133.875 283.244 135.000 282.494 135.000 281.922 C 135.000 281.350 135.434 281.150 135.964 281.477 C 136.493 281.805 137.806 281.194 138.880 280.120 C 139.954 279.046 141.096 278.429 141.417 278.750 C 141.738 279.071 142.000 278.782 142.000 278.108 C 142.000 277.434 142.434 277.150 142.964 277.477 C 143.493 277.805 144.806 277.194 145.880 276.120 C 146.954 275.046 148.096 274.429 148.417 274.750 C 148.738 275.071 149.000 274.782 149.000 274.108 C 149.000 273.434 149.450 273.160 150.000 273.500 C 150.550 273.840 151.000 273.615 151.000 273.000 C 151.000 272.385 151.453 272.162 152.007 272.504 C 152.561 272.847 153.283 272.426 153.612 271.569 C 153.941 270.712 154.612 270.260 155.105 270.565 C 155.597 270.869 156.000 270.615 156.000 270.000 C 156.000 269.385 156.450 269.160 157.000 269.500 C 157.550 269.840 158.000 269.740 158.000 269.278 C 158.000 268.816 159.238 267.898 160.750 267.237 C 162.263 266.577 164.850 265.135 166.500 264.033 C 168.150 262.931 170.546 261.571 171.825 261.011 C 173.104 260.451 174.824 259.319 175.647 258.496 C 176.470 257.673 177.786 257.000 178.571 257.000 C 179.357 257.000 180.000 256.523 180.000 255.941 C 180.000 255.359 180.450 255.160 181.000 255.500 C 181.550 255.840 182.000 255.615 182.000 255.000 C 182.000 254.385 182.453 254.162 183.007 254.504 C 183.561 254.847 184.283 254.426 184.612 253.569 C 184.941 252.712 185.612 252.260 186.105 252.565 C 186.597 252.869 187.000 252.615 187.000 252.000 C 187.000 251.385 187.450 251.160 188.000 251.500 C 188.550 251.840 189.000 251.566 189.000 250.892 C 189.000 250.218 189.263 249.929 189.583 250.250 C 189.904 250.571 191.046 249.954 192.120 248.880 C 193.194 247.806 194.507 247.195 195.036 247.523 C 195.566 247.850 196.000 247.615 196.000 247.000 C 196.000 246.385 196.450 246.160 197.000 246.500 C 197.550 246.840 198.000 246.641 198.000 246.059 C 198.000 245.477 198.643 245.000 199.429 245.000 C 200.214 245.000 201.452 244.432 202.179 243.738 C 202.905 243.044 204.625 241.914 206.000 241.225 C 207.375 240.537 210.700 238.691 213.390 237.124 C 216.277 235.440 219.553 234.335 221.390 234.424 C 224.929 234.595 232.000 237.047 232.000 238.103 C 232.000 238.489 233.238 239.312 234.750 239.933 C 237.994 241.265 241.219 243.107 243.235 244.780 C 244.032 245.442 244.980 245.687 245.342 245.325 C 245.704 244.963 246.000 245.218 246.000 245.892 C 246.000 246.566 246.382 246.882 246.849 246.594 C 247.315 246.305 248.617 246.927 249.742 247.974 C 250.867 249.022 252.060 249.607 252.394 249.273 C 252.727 248.940 253.000 249.218 253.000 249.892 C 253.000 250.566 253.403 250.869 253.895 250.565 C 254.388 250.260 255.073 250.748 255.419 251.649 C 255.764 252.549 256.300 253.033 256.609 252.724 C 256.918 252.415 258.145 253.008 259.336 254.042 C 261.450 255.879 261.493 256.435 261.213 277.896 C 260.937 299.027 260.851 299.864 258.963 299.722 C 257.883 299.641 257.000 299.194 257.000 298.728 C 257.000 298.263 256.550 298.160 256.000 298.500 C 255.450 298.840 255.000 298.641 255.000 298.059 C 255.000 297.477 254.357 297.000 253.571 297.000 C 252.786 297.000 251.470 296.327 250.647 295.504 C 249.824 294.681 248.104 293.551 246.825 292.993 C 245.546 292.435 242.700 290.846 240.500 289.461 C 238.300 288.075 235.263 286.461 233.750 285.873 C 232.238 285.285 231.000 284.323 231.000 283.736 C 231.000 283.148 230.727 282.940 230.394 283.273 C 230.060 283.607 228.867 283.022 227.742 281.974 C 226.617 280.927 225.315 280.305 224.849 280.594 C 224.382 280.882 224.000 280.615 224.000 280.000 C 224.000 279.385 223.550 279.160 223.000 279.500 C 222.450 279.840 221.993 279.529 221.985 278.809 C 221.974 277.858 221.704 277.910 221.000 279.000 C 220.467 279.825 220.024 280.163 220.015 279.750 C 220.007 279.338 219.084 279.916 217.964 281.036 C 216.843 282.157 215.493 282.805 214.964 282.477 C 214.434 282.150 214.000 282.385 214.000 283.000 C 214.000 283.615 213.550 283.840 213.000 283.500 C 212.450 283.160 212.000 283.359 212.000 283.941 C 212.000 284.523 211.357 285.000 210.571 285.000 C 209.786 285.000 208.545 285.598 207.813 286.329 C 207.082 287.061 205.283 288.298 203.816 289.079 C 202.349 289.861 198.190 292.064 194.574 293.976 C 190.958 295.888 188.000 297.801 188.000 298.226 C 188.000 298.652 187.325 299.000 186.500 299.000 C 185.675 299.000 185.000 299.477 185.000 300.059 C 185.000 300.641 184.550 300.840 184.000 300.500 C 183.450 300.160 183.000 300.385 183.000 301.000 C 183.000 301.615 182.550 301.840 182.000 301.500 C 181.450 301.160 181.000 301.385 181.000 302.000 C 181.000 302.615 180.597 302.869 180.105 302.565 C 179.612 302.260 178.941 302.712 178.612 303.569 C 178.283 304.426 177.561 304.847 177.007 304.504 C 176.453 304.162 176.000 304.385 176.000 305.000 C 176.000 305.615 175.550 305.840 175.000 305.500 C 174.450 305.160 174.000 305.262 174.000 305.725 C 174.000 306.189 172.650 307.366 171.000 308.341 C 169.350 309.316 168.000 309.830 168.000 309.485 C 168.000 309.140 167.293 309.564 166.429 310.429 C 165.564 311.293 164.327 312.000 163.679 312.000 C 162.796 312.000 162.500 320.739 162.500 346.750 C 162.500 376.634 162.710 381.607 164.000 382.262 C 164.825 382.681 166.850 383.925 168.500 385.028 C 170.150 386.130 173.188 387.768 175.250 388.667 C 177.313 389.567 179.000 390.712 179.000 391.211 C 179.000 391.710 179.450 391.840 180.000 391.500 C 180.550 391.160 181.000 391.359 181.000 391.941 C 181.000 392.523 181.675 393.000 182.500 393.000 C 183.325 393.000 184.000 393.477 184.000 394.059 C 184.000 394.641 184.450 394.840 185.000 394.500 C 185.550 394.160 186.000 394.434 186.000 395.108 C 186.000 395.782 186.263 396.071 186.583 395.750 C 186.904 395.429 188.046 396.046 189.120 397.120 C 190.194 398.194 191.507 398.805 192.036 398.477 C 192.566 398.150 193.000 398.286 193.000 398.780 C 193.000 399.618 198.415 402.594 198.571 401.842 C 198.611 401.654 199.430 402.288 200.393 403.250 C 201.355 404.213 202.786 405.000 203.571 405.000 C 204.357 405.000 205.000 405.406 205.000 405.902 C 205.000 406.398 206.238 407.292 207.750 407.888 C 210.644 409.028 212.927 410.369 216.856 413.236 C 218.165 414.191 219.632 414.727 220.118 414.427 C 220.603 414.127 221.000 414.349 221.000 414.920 C 221.000 415.609 221.838 415.575 223.500 414.818 C 224.875 414.192 226.000 413.275 226.000 412.780 C 226.000 412.286 226.450 412.160 227.000 412.500 C 227.550 412.840 228.000 412.694 228.000 412.176 C 228.000 411.657 228.788 410.962 229.750 410.631 C 230.713 410.299 232.963 409.122 234.750 408.014 C 243.307 402.711 244.685 401.927 247.250 400.903 C 248.763 400.299 250.000 399.372 250.000 398.843 C 250.000 398.315 250.450 398.160 251.000 398.500 C 251.550 398.840 252.000 398.615 252.000 398.000 C 252.000 397.385 252.453 397.162 253.007 397.504 C 253.561 397.847 254.283 397.426 254.612 396.569 C 254.941 395.712 255.612 395.260 256.105 395.565 C 256.597 395.869 257.000 395.615 257.000 395.000 C 257.000 394.385 257.450 394.160 258.000 394.500 C 258.550 394.840 259.000 394.738 259.000 394.275 C 259.000 393.073 264.591 389.924 265.360 390.693 C 265.712 391.045 266.000 390.843 266.000 390.244 C 266.000 389.645 267.575 388.635 269.500 388.000 C 271.425 387.365 273.000 386.479 273.000 386.031 C 273.000 385.583 274.125 384.934 275.500 384.589 C 276.875 384.244 278.000 383.520 278.000 382.981 C 278.000 382.441 278.675 382.000 279.500 382.000 C 280.822 382.000 281.000 371.394 281.000 292.547 C 281.000 223.136 281.280 202.471 282.250 200.311 C 283.849 196.751 286.071 194.532 290.148 192.424 C 291.938 191.498 294.019 190.124 294.773 189.370 C 295.526 188.617 296.786 188.000 297.571 188.000 C 298.357 188.000 299.000 187.523 299.000 186.941 C 299.000 186.359 299.450 186.160 300.000 186.500 C 300.550 186.840 301.000 186.641 301.000 186.059 C 301.000 185.477 301.675 185.000 302.500 185.000 C 303.325 185.000 304.000 184.523 304.000 183.941 C 304.000 183.359 304.450 183.160 305.000 183.500 C 305.550 183.840 306.000 183.615 306.000 183.000 C 306.000 182.385 306.434 182.150 306.964 182.477 C 307.493 182.805 308.806 182.194 309.880 181.120 C 310.954 180.046 312.096 179.429 312.417 179.750 C 312.738 180.071 313.000 179.782 313.000 179.108 C 313.000 178.434 313.434 178.150 313.964 178.477 C 314.493 178.805 315.806 178.194 316.880 177.120 C 317.954 176.046 319.096 175.429 319.417 175.750 C 319.738 176.071 320.000 175.782 320.000 175.108 C 320.000 174.434 320.450 174.160 321.000 174.500 C 321.550 174.840 322.000 174.740 322.000 174.278 C 322.000 173.816 323.238 172.898 324.750 172.237 C 326.263 171.577 328.850 170.153 330.500 169.074 C 333.957 166.813 337.628 164.706 342.250 162.328 C 344.038 161.409 345.725 160.345 346.000 159.963 C 346.275 159.582 347.513 158.954 348.750 158.567 C 349.988 158.181 351.000 157.419 351.000 156.874 C 351.000 156.328 351.450 156.160 352.000 156.500 C 352.550 156.840 353.000 156.566 353.000 155.892 C 353.000 155.218 353.263 154.929 353.583 155.250 C 353.904 155.571 355.046 154.954 356.120 153.880 C 357.194 152.806 358.507 152.195 359.036 152.523 C 359.566 152.850 360.000 152.615 360.000 152.000 C 360.000 151.385 360.450 151.160 361.000 151.500 C 361.550 151.840 362.000 151.672 362.000 151.126 C 362.000 150.581 363.013 149.819 364.250 149.433 C 365.488 149.046 366.725 148.405 367.000 148.008 C 367.275 147.610 369.854 146.166 372.730 144.798 C 378.673 141.972 383.845 142.206 390.004 145.580 "/></g>
<g fill="#9133D2FF" stroke="#9133D2FF">
<path d="M 440.198 255.463 C 440.034 274.693 440.153 289.764 440.463 288.956 C 440.774 288.147 440.908 272.414 440.762 253.993 L 440.497 220.500 440.198 255.463 "/></g>
<g fill="#9133D2FF" stroke="#9133D2FF">
<path d="M 92.500 86.468 L 85.500 93.545 92.500 86.468 L 99.500 79.392 92.500 86.468 "/></g>
<g fill="#9133D2FF" stroke="#9133D2FF">
<path d="M 18.118 201.118 C 16.961 204.544 16.186 207.519 16.396 207.730 C 16.607 207.940 17.725 205.309 18.882 201.882 C 20.039 198.456 20.814 195.481 20.604 195.270 C 20.393 195.060 19.275 197.691 18.118 201.118 "/></g>
</svg>
