<?xml version="1.0" encoding="utf-8"?>
<!DOCTYPE svg PUBLIC "-//W3C//DTD SVG 20010904//EN" "http://www.w3.org/TR/2001/REC-SVG-20010904/DTD/svg10.dtd">
<svg version="1.0" xmlns="http://www.w3.org/2000/svg" width="602pt" height="452pt" viewBox="0 0 602 452" style="" preserveAspectRatio="xMidYMid meet">
<g fill="#547FEFFF" stroke="#547FEFFF">
<path d="M 279.086 57.200 C 262.582 59.382 249.245 62.733 238.729 67.341 C 236.953 68.119 233.475 69.605 231.000 70.642 C 223.532 73.772 210.000 81.163 210.000 82.111 C 210.000 82.600 209.438 83.015 208.750 83.032 C 206.237 83.097 191.170 94.943 181.443 104.500 C 170.633 115.123 164.065 123.427 153.364 140.000 C 148.524 147.496 137.969 172.215 136.600 179.261 C 136.361 180.492 135.427 184.200 134.524 187.500 C 133.622 190.800 132.691 195.075 132.455 197.000 C 132.220 198.925 131.521 204.550 130.902 209.500 C 129.505 220.671 130.345 244.468 132.543 256.000 C 134.630 266.953 139.644 284.139 142.898 291.500 C 164.321 339.951 201.001 373.651 249.000 388.983 C 264.331 393.880 277.275 395.991 296.000 396.648 C 310.995 397.174 317.005 396.619 340.500 392.541 C 350.410 390.820 380.268 378.256 392.167 370.798 C 400.928 365.308 415.515 353.214 423.673 344.676 C 431.756 336.218 442.671 322.656 444.338 319.000 C 444.714 318.175 445.919 316.150 447.016 314.500 C 449.207 311.204 457.469 294.391 460.775 286.500 C 463.870 279.115 467.336 265.915 470.097 251.000 C 472.127 240.037 471.566 209.350 469.111 197.000 C 465.126 176.958 461.669 166.395 453.855 150.387 C 449.436 141.334 442.534 130.093 440.581 128.765 C 439.986 128.361 439.906 128.024 440.403 128.015 C 440.900 128.007 440.446 127.213 439.395 126.250 C 438.343 125.288 436.266 122.700 434.777 120.500 C 431.788 116.081 419.144 102.875 411.546 96.237 C 407.358 92.578 399.781 87.022 394.176 83.500 C 393.301 82.950 391.978 81.945 391.237 81.266 C 385.708 76.204 348.702 61.000 341.909 61.000 C 340.374 61.000 338.872 60.603 338.572 60.117 C 338.272 59.631 335.658 58.912 332.763 58.519 C 329.868 58.126 326.600 57.604 325.500 57.358 C 324.400 57.112 316.401 56.594 307.724 56.206 C 295.371 55.653 289.156 55.869 279.086 57.200 M 307.963 101.000 C 309.131 101.880 339.000 150.808 339.000 151.840 C 339.000 152.386 339.362 152.983 339.804 153.167 C 340.247 153.350 346.383 162.950 353.442 174.500 C 360.500 186.050 367.144 196.738 368.205 198.250 C 369.267 199.763 369.768 201.007 369.318 201.015 C 368.868 201.024 368.963 201.361 369.530 201.765 C 370.671 202.579 384.539 224.580 385.482 227.072 C 385.875 228.110 385.257 229.017 383.663 229.744 C 381.583 230.692 381.113 230.544 380.260 228.672 C 379.485 226.972 378.426 226.509 375.385 226.542 C 373.248 226.565 371.169 226.115 370.765 225.542 C 370.361 224.969 370.024 225.946 370.015 227.714 C 370.000 230.875 370.073 230.926 374.539 230.836 C 377.036 230.786 379.348 231.015 379.678 231.344 C 380.461 232.128 375.085 234.171 374.001 233.501 C 373.545 233.219 372.992 233.525 372.773 234.181 C 372.517 234.948 371.563 234.563 370.104 233.104 C 367.126 230.126 366.158 231.133 369.083 234.167 C 370.321 235.450 370.761 236.372 370.061 236.215 C 369.362 236.058 368.116 236.488 367.294 237.171 C 365.566 238.605 363.526 239.154 360.000 239.132 L 357.500 239.117 360.000 240.176 C 362.293 241.146 362.328 241.251 360.426 241.437 C 358.455 241.630 352.695 245.000 354.337 245.000 C 354.766 245.000 354.810 245.498 354.434 246.107 C 353.957 246.879 353.480 246.803 352.856 245.857 C 352.130 244.754 351.702 244.839 350.577 246.310 C 349.701 247.454 348.951 247.730 348.537 247.060 C 348.177 246.477 348.471 245.942 349.191 245.871 C 349.911 245.800 349.263 245.667 347.750 245.575 C 346.078 245.473 345.000 245.915 345.000 246.704 C 345.000 247.417 345.450 248.000 346.000 248.000 C 346.550 248.000 347.000 248.563 347.000 249.250 C 346.999 250.412 345.083 250.609 338.250 250.151 C 336.557 250.037 336.000 249.381 336.000 247.500 C 336.000 246.125 335.550 245.000 335.000 245.000 C 334.450 245.000 334.000 246.125 334.000 247.500 C 334.000 248.875 334.450 250.000 335.000 250.000 C 335.550 250.000 336.000 251.125 336.000 252.500 C 336.000 254.032 335.431 255.000 334.531 255.000 C 333.590 255.000 333.285 255.580 333.683 256.615 C 334.162 257.864 333.859 258.090 332.351 257.611 C 331.094 257.213 329.189 257.885 327.000 259.500 C 324.995 260.979 322.870 261.776 321.820 261.443 C 320.841 261.132 319.244 261.362 318.270 261.953 C 316.809 262.840 316.966 262.922 319.175 262.424 C 321.353 261.933 321.801 262.153 321.587 263.606 C 321.443 264.588 320.739 265.587 320.023 265.826 C 319.253 266.082 319.007 265.798 319.420 265.130 C 319.804 264.508 319.641 264.000 319.059 264.000 C 318.477 264.000 317.990 264.338 317.978 264.750 C 317.966 265.163 317.160 266.534 316.187 267.799 C 314.281 270.275 310.693 269.963 311.674 267.406 C 312.072 266.371 311.734 266.165 310.447 266.659 C 309.239 267.122 308.901 266.970 309.388 266.181 C 309.860 265.418 309.560 265.231 308.510 265.635 C 307.633 265.971 306.987 266.978 307.073 267.873 C 307.489 272.181 306.900 275.000 305.583 275.000 C 304.804 275.000 304.017 274.663 303.833 274.250 C 303.650 273.838 300.445 271.925 296.711 270.000 C 292.977 268.075 289.152 265.802 288.211 264.950 C 287.270 264.097 285.600 263.056 284.500 262.636 C 281.407 261.456 254.543 245.629 254.167 244.766 C 253.983 244.345 253.228 244.000 252.488 244.000 C 251.748 244.000 250.533 243.438 249.787 242.750 C 249.041 242.063 245.859 240.166 242.715 238.535 C 239.572 236.904 237.000 235.307 237.000 234.986 C 237.000 234.665 235.425 233.832 233.500 233.136 C 231.575 232.440 230.000 231.450 230.000 230.935 C 230.000 230.421 229.311 230.000 228.469 230.000 C 225.482 230.000 225.950 227.217 229.947 221.199 C 232.174 217.847 234.554 213.843 235.236 212.302 C 235.918 210.761 237.044 208.906 237.738 208.179 C 238.431 207.453 240.215 204.753 241.701 202.179 C 243.188 199.606 244.684 197.275 245.026 197.000 C 245.368 196.725 247.181 193.688 249.055 190.250 C 250.929 186.813 252.808 184.000 253.231 184.000 C 253.654 184.000 254.000 183.583 254.000 183.073 C 254.000 182.564 256.160 178.626 258.799 174.323 C 261.439 170.021 263.911 165.825 264.293 165.000 C 265.110 163.236 267.285 159.715 268.000 159.000 C 268.275 158.725 269.030 157.600 269.678 156.500 C 270.617 154.907 280.235 139.531 285.003 132.000 C 285.525 131.175 289.854 123.975 294.622 116.000 C 304.347 99.737 306.227 97.155 306.874 99.173 C 307.108 99.903 307.598 100.725 307.963 101.000 M 232.500 246.878 C 235.250 248.441 244.250 253.660 252.500 258.477 C 260.750 263.293 268.175 267.491 269.000 267.805 C 269.825 268.119 272.633 269.866 275.240 271.688 C 277.847 273.510 280.234 275.000 280.545 275.000 C 280.857 275.000 285.249 277.424 290.306 280.387 C 304.904 288.940 307.099 289.976 308.363 288.901 C 310.647 286.957 321.000 281.165 321.015 281.823 C 321.024 282.195 321.361 282.036 321.765 281.469 C 322.546 280.374 328.286 276.932 350.000 264.540 C 365.818 255.513 364.343 256.371 374.500 250.290 C 386.157 243.310 386.937 243.390 381.408 251.000 C 378.810 254.575 376.306 257.650 375.842 257.833 C 375.379 258.017 375.000 258.566 375.000 259.054 C 375.000 260.360 368.752 269.000 367.807 269.000 C 367.363 269.000 367.000 269.419 367.000 269.930 C 367.000 270.442 362.366 277.305 356.701 285.180 C 321.523 334.094 314.580 343.614 313.360 344.610 C 312.612 345.221 312.000 346.012 312.000 346.369 C 312.000 346.726 310.676 348.845 309.057 351.079 L 306.115 355.141 303.075 350.821 C 301.403 348.444 299.681 346.050 299.248 345.500 C 296.577 342.105 289.071 331.860 286.729 328.412 C 285.205 326.168 283.068 323.376 281.979 322.208 C 280.891 321.040 280.000 319.693 280.000 319.216 C 280.000 318.739 278.875 317.292 277.500 316.000 C 276.125 314.708 275.000 313.272 275.000 312.808 C 275.000 312.344 270.838 306.311 265.750 299.401 C 260.663 292.490 255.150 284.924 253.500 282.587 C 251.850 280.249 246.000 272.144 240.500 264.575 C 228.209 247.660 225.755 243.995 226.735 244.018 C 227.156 244.028 229.750 245.315 232.500 246.878 "/></g>
<g fill="#7799F2FF" stroke="#7799F2FF">
<path d="M 306.000 233.917 C 306.000 264.914 305.721 273.946 304.750 274.338 C 304.003 274.639 304.205 274.874 305.250 274.921 C 306.933 274.997 307.536 272.666 307.073 267.873 C 306.987 266.978 307.633 265.971 308.510 265.635 C 309.560 265.231 309.860 265.418 309.388 266.181 C 308.901 266.970 309.239 267.122 310.447 266.659 C 311.734 266.165 312.072 266.371 311.674 267.406 C 310.693 269.963 314.281 270.275 316.187 267.799 C 317.160 266.534 317.966 265.163 317.978 264.750 C 317.990 264.338 318.477 264.000 319.059 264.000 C 319.641 264.000 319.804 264.508 319.420 265.130 C 319.007 265.798 319.253 266.082 320.023 265.826 C 320.739 265.587 321.443 264.588 321.587 263.606 C 321.801 262.153 321.353 261.933 319.175 262.424 C 316.966 262.922 316.809 262.840 318.270 261.953 C 319.244 261.362 320.841 261.132 321.820 261.443 C 322.870 261.776 324.995 260.979 327.000 259.500 C 329.189 257.885 331.094 257.213 332.351 257.611 C 333.859 258.090 334.162 257.864 333.683 256.615 C 333.285 255.580 333.590 255.000 334.531 255.000 C 335.431 255.000 336.000 254.032 336.000 252.500 C 336.000 251.125 335.550 250.000 335.000 250.000 C 334.450 250.000 334.000 248.875 334.000 247.500 C 334.000 246.125 334.450 245.000 335.000 245.000 C 335.550 245.000 336.000 246.125 336.000 247.500 C 336.000 249.381 336.557 250.037 338.250 250.151 C 345.083 250.609 346.999 250.412 347.000 249.250 C 347.000 248.563 346.550 248.000 346.000 248.000 C 345.450 248.000 345.000 247.417 345.000 246.704 C 345.000 245.915 346.078 245.473 347.750 245.575 C 349.263 245.667 349.911 245.800 349.191 245.871 C 348.471 245.942 348.177 246.477 348.537 247.060 C 348.951 247.730 349.701 247.454 350.577 246.310 C 351.702 244.839 352.130 244.754 352.856 245.857 C 353.480 246.803 353.957 246.879 354.434 246.107 C 354.810 245.498 354.766 245.000 354.337 245.000 C 352.695 245.000 358.455 241.630 360.426 241.437 C 362.328 241.251 362.293 241.146 360.000 240.176 L 357.500 239.117 360.000 239.132 C 363.526 239.154 365.566 238.605 367.294 237.171 C 368.116 236.488 369.362 236.058 370.061 236.215 C 370.761 236.372 370.321 235.450 369.083 234.167 C 366.158 231.133 367.126 230.126 370.104 233.104 C 371.563 234.563 372.517 234.948 372.773 234.181 C 372.992 233.525 373.545 233.219 374.001 233.501 C 375.085 234.171 380.461 232.128 379.678 231.344 C 379.348 231.015 377.036 230.786 374.539 230.836 C 370.073 230.926 370.000 230.875 370.015 227.714 C 370.024 225.946 370.361 224.969 370.765 225.542 C 371.169 226.115 373.248 226.565 375.385 226.542 C 378.426 226.509 379.485 226.972 380.260 228.672 C 381.108 230.532 381.590 230.688 383.625 229.761 C 386.434 228.481 386.683 227.488 384.250 227.267 C 383.288 227.179 368.325 220.740 351.000 212.958 C 333.675 205.175 317.082 197.726 314.126 196.404 C 311.170 195.082 308.132 194.000 307.376 194.000 C 306.231 194.000 306.000 200.707 306.000 233.917 M 308.838 196.750 C 308.679 197.713 308.903 199.063 309.334 199.750 C 309.777 200.457 309.658 201.000 309.059 201.000 C 307.670 201.000 307.708 208.214 309.135 215.318 C 309.989 219.569 309.984 221.314 309.116 222.360 C 308.317 223.324 308.077 228.472 308.338 239.125 C 308.544 247.581 308.386 256.975 307.986 260.000 C 307.584 263.038 307.222 249.720 307.177 230.250 C 307.124 207.029 307.443 195.000 308.111 195.000 C 308.669 195.000 308.996 195.788 308.838 196.750 M 326.000 204.000 C 326.825 204.533 327.050 205.007 326.500 205.054 C 325.950 205.100 326.723 205.300 328.217 205.497 C 331.423 205.921 335.924 208.971 335.969 210.750 C 336.009 212.372 335.024 212.326 330.654 210.500 C 328.680 209.675 325.714 209.000 324.064 209.000 C 321.855 209.000 321.186 208.604 321.531 207.500 C 321.789 206.675 322.211 205.325 322.469 204.500 C 323.010 202.766 323.897 202.641 326.000 204.000 M 356.000 218.313 C 359.369 219.913 361.212 221.751 360.121 222.425 C 359.629 222.729 358.671 222.308 357.991 221.489 C 357.296 220.652 355.104 220.000 352.985 220.000 C 350.672 220.000 349.006 219.458 348.676 218.598 C 347.565 215.703 350.281 215.597 356.000 218.313 M 363.000 234.336 C 363.000 235.202 361.593 235.727 359.000 235.829 C 355.258 235.976 354.105 235.228 355.667 233.667 C 356.938 232.395 363.000 232.948 363.000 234.336 M 314.768 198.356 C 316.658 199.525 316.237 200.557 313.796 200.740 C 311.433 200.918 308.733 199.240 309.469 198.051 C 310.022 197.155 313.113 197.334 314.768 198.356 M 348.315 213.378 C 348.606 214.136 348.339 215.261 347.722 215.878 C 346.242 217.358 344.683 217.322 345.605 215.830 C 346.093 215.040 345.780 214.870 344.641 215.308 C 343.222 215.852 343.122 215.640 344.012 213.977 C 345.235 211.692 347.545 211.371 348.315 213.378 M 368.725 225.000 C 368.808 226.100 368.454 227.000 367.938 227.000 C 367.422 227.000 367.000 226.100 367.000 225.000 C 367.000 223.900 367.354 223.000 367.787 223.000 C 368.220 223.000 368.642 223.900 368.725 225.000 "/></g>
<g fill="#547FEFFF" stroke="#547FEFFF">
<path d="M 307.177 230.250 C 307.222 249.720 307.584 263.038 307.986 260.000 C 308.386 256.975 308.544 247.581 308.338 239.125 C 308.077 228.472 308.317 223.324 309.116 222.360 C 309.984 221.314 309.989 219.569 309.135 215.318 C 307.708 208.214 307.670 201.000 309.059 201.000 C 309.658 201.000 309.777 200.457 309.334 199.750 C 308.903 199.063 308.679 197.713 308.838 196.750 C 308.996 195.788 308.669 195.000 308.111 195.000 C 307.443 195.000 307.124 207.029 307.177 230.250 "/></g>
<g fill="#547FEFFF" stroke="#547FEFFF">
<path d="M 322.469 204.500 C 322.211 205.325 321.789 206.675 321.531 207.500 C 321.186 208.604 321.855 209.000 324.064 209.000 C 325.714 209.000 328.680 209.675 330.654 210.500 C 335.024 212.326 336.009 212.372 335.969 210.750 C 335.924 208.971 331.423 205.921 328.217 205.497 C 326.723 205.300 325.950 205.100 326.500 205.054 C 327.599 204.961 324.977 203.040 323.719 203.015 C 323.289 203.007 322.726 203.675 322.469 204.500 "/></g>
<g fill="#B8CEFFFF" stroke="#B8CEFFFF">
<path d="M 369.000 202.553 C 369.000 202.857 370.125 204.762 371.500 206.785 C 372.875 208.809 374.000 211.176 374.000 212.045 C 374.000 212.914 375.362 214.930 377.026 216.525 C 378.690 218.119 379.822 220.020 379.543 220.750 C 379.263 221.479 379.764 222.356 380.657 222.699 C 382.143 223.269 382.138 223.426 380.601 224.549 C 379.104 225.645 379.250 225.892 381.961 226.837 C 383.633 227.419 385.000 227.632 385.000 227.309 C 385.000 226.339 378.813 216.548 377.784 215.888 C 377.259 215.552 376.891 214.975 376.967 214.606 C 377.044 214.237 375.474 211.250 373.480 207.968 C 370.150 202.485 369.000 201.095 369.000 202.553 "/></g>
<g fill="#B8CEFFFF" stroke="#B8CEFFFF">
<path d="M 366.735 267.858 C 365.215 268.751 364.174 270.011 364.422 270.658 C 364.671 271.305 364.227 272.083 363.437 272.386 C 362.647 272.689 362.000 273.557 362.000 274.314 C 362.000 275.071 361.111 276.495 360.024 277.479 C 358.937 278.462 358.290 279.660 358.587 280.141 C 358.884 280.621 358.440 281.278 357.601 281.599 C 356.763 281.921 355.802 283.050 355.466 284.107 C 355.131 285.164 354.504 285.812 354.074 285.546 C 353.644 285.280 352.768 286.214 352.127 287.621 C 351.314 289.406 351.292 290.069 352.056 289.815 C 352.657 289.614 353.140 289.146 353.128 288.774 C 353.116 288.403 354.319 286.785 355.803 285.179 C 357.286 283.573 360.975 278.654 364.000 274.248 C 368.804 267.250 369.150 266.441 366.735 267.858 "/></g>
<g fill="#B8CEFFFF" stroke="#B8CEFFFF">
<path d="M 317.114 197.447 C 317.385 197.718 322.308 200.023 328.053 202.570 C 333.799 205.116 340.266 208.051 342.424 209.093 C 347.926 211.748 347.984 210.821 342.492 207.996 C 340.006 206.717 337.495 205.097 336.913 204.395 C 336.330 203.693 335.215 203.364 334.435 203.663 C 333.655 203.963 331.412 203.261 329.451 202.104 C 327.490 200.947 325.326 200.000 324.643 200.000 C 323.959 200.000 322.866 199.466 322.214 198.814 C 321.561 198.161 320.036 197.476 318.824 197.291 C 317.613 197.106 316.843 197.176 317.114 197.447 "/></g>
<g fill="#547FEFFF" stroke="#547FEFFF">
<path d="M 348.747 216.587 C 347.180 218.153 349.474 220.000 352.985 220.000 C 355.104 220.000 357.296 220.652 357.991 221.489 C 358.671 222.308 359.629 222.729 360.121 222.425 C 361.212 221.751 359.369 219.913 356.000 218.313 C 352.361 216.585 349.443 215.890 348.747 216.587 "/></g>
<g fill="#B8CEFFFF" stroke="#B8CEFFFF">
<path d="M 357.672 214.722 C 357.354 215.236 361.685 217.698 367.297 220.194 C 374.378 223.342 377.403 224.282 377.183 223.265 C 377.009 222.460 376.633 222.033 376.348 222.318 C 375.493 223.174 369.958 220.878 370.553 219.914 C 370.856 219.424 370.387 219.298 369.511 219.634 C 368.635 219.970 367.990 219.853 368.078 219.373 C 368.429 217.449 367.923 216.573 367.157 217.780 C 366.527 218.773 365.778 218.613 363.807 217.062 C 362.410 215.964 360.958 215.375 360.580 215.754 C 360.201 216.132 359.522 215.845 359.071 215.114 C 358.615 214.377 357.993 214.202 357.672 214.722 "/></g>
<g fill="#B8CEFFFF" stroke="#B8CEFFFF">
<path d="M 360.001 259.150 C 353.429 262.950 350.041 266.582 355.889 263.557 C 357.600 262.673 359.000 261.559 359.000 261.083 C 359.000 260.297 363.026 258.717 365.500 258.532 C 366.050 258.490 366.492 257.772 366.482 256.934 C 366.469 255.796 364.836 256.354 360.001 259.150 "/></g>
<g fill="#B8CEFFFF" stroke="#B8CEFFFF">
<path d="M 261.568 248.901 C 261.827 249.161 265.293 251.241 269.270 253.524 C 273.246 255.808 275.873 257.186 275.106 256.588 C 274.340 255.990 272.765 254.550 271.606 253.389 C 270.448 252.228 268.488 250.960 267.250 250.572 C 266.013 250.183 265.000 249.542 265.000 249.147 C 265.000 248.752 264.121 248.429 263.048 248.429 C 261.974 248.429 261.308 248.641 261.568 248.901 "/></g>
<g fill="#B8CEFFFF" stroke="#B8CEFFFF">
<path d="M 324.188 129.500 C 324.860 131.150 326.217 133.305 327.204 134.289 C 328.192 135.273 329.000 136.960 329.000 138.039 C 329.000 139.118 329.450 140.000 330.000 140.000 C 330.550 140.000 330.888 140.338 330.750 140.750 C 330.613 141.163 330.838 141.613 331.250 141.750 C 331.663 141.888 332.033 141.757 332.072 141.459 C 332.174 140.698 326.511 130.909 324.575 128.500 C 323.056 126.610 323.035 126.665 324.188 129.500 "/></g>
<g fill="#547FEFFF" stroke="#547FEFFF">
<path d="M 355.667 233.667 C 354.105 235.228 355.258 235.976 359.000 235.829 C 364.040 235.631 364.660 233.000 359.667 233.000 C 357.833 233.000 356.033 233.300 355.667 233.667 "/></g>
<g fill="#B8CEFFFF" stroke="#B8CEFFFF">
<path d="M 360.829 188.619 C 361.435 189.784 361.645 191.021 361.298 191.369 C 360.951 191.716 361.143 192.000 361.725 192.000 C 362.307 192.000 363.066 193.125 363.411 194.500 C 363.756 195.875 364.480 197.000 365.019 197.000 C 365.559 197.000 366.000 197.655 366.000 198.456 C 366.000 199.257 366.668 200.045 367.485 200.206 C 368.455 200.398 367.637 198.326 365.121 194.220 C 361.246 187.896 358.787 184.687 360.829 188.619 "/></g>
<g fill="#B8CEFFFF" stroke="#B8CEFFFF">
<path d="M 339.000 153.462 C 339.000 154.978 344.947 164.642 347.052 166.547 C 348.264 167.644 347.234 165.325 344.644 161.124 C 339.841 153.335 339.000 152.192 339.000 153.462 "/></g>
<g fill="#B8CEFFFF" stroke="#B8CEFFFF">
<path d="M 382.250 246.354 C 381.013 246.878 380.000 248.052 380.000 248.964 C 380.000 249.876 379.204 251.495 378.230 252.561 C 377.257 253.628 376.470 255.156 376.480 255.959 C 376.491 256.761 378.300 254.714 380.500 251.410 C 383.964 246.207 384.199 245.530 382.250 246.354 "/></g>
<g fill="#547FEFFF" stroke="#547FEFFF">
<path d="M 309.469 198.051 C 308.733 199.240 311.433 200.918 313.796 200.740 C 315.008 200.649 316.000 200.247 316.000 199.846 C 316.000 198.085 310.399 196.545 309.469 198.051 "/></g>
<g fill="#B8CEFFFF" stroke="#B8CEFFFF">
<path d="M 339.987 270.500 C 339.719 271.050 336.877 272.850 333.670 274.500 C 330.464 276.150 327.764 277.812 327.670 278.193 C 327.577 278.574 328.625 278.254 330.000 277.482 C 331.375 276.711 333.625 275.563 335.000 274.933 C 339.961 272.658 340.500 272.261 340.487 270.891 C 340.480 270.126 340.255 269.950 339.987 270.500 "/></g>
<g fill="#B8CEFFFF" stroke="#B8CEFFFF">
<path d="M 311.857 109.890 C 312.999 110.614 312.999 110.886 311.857 111.610 C 310.839 112.254 310.812 112.504 311.750 112.610 C 312.438 112.687 313.414 112.806 313.921 112.875 C 314.427 112.944 315.138 114.350 315.500 116.000 C 315.862 117.650 316.794 119.000 317.570 119.000 C 318.563 119.000 318.070 117.518 315.905 114.000 C 314.213 111.250 312.305 109.007 311.664 109.015 C 310.923 109.025 310.993 109.343 311.857 109.890 "/></g>
<g fill="#547FEFFF" stroke="#547FEFFF">
<path d="M 344.012 213.977 C 343.122 215.640 343.222 215.852 344.641 215.308 C 345.780 214.870 346.093 215.040 345.605 215.830 C 344.683 217.322 346.242 217.358 347.722 215.878 C 349.105 214.495 348.272 212.000 346.428 212.000 C 345.681 212.000 344.594 212.890 344.012 213.977 "/></g>
<g fill="#B8CEFFFF" stroke="#B8CEFFFF">
<path d="M 287.000 262.975 C 287.000 263.476 288.913 264.976 291.250 266.306 C 295.486 268.718 295.493 268.719 293.500 266.465 C 292.400 265.221 291.163 264.410 290.750 264.661 C 290.338 264.912 290.000 264.690 290.000 264.166 C 290.000 263.642 289.325 262.955 288.500 262.638 C 287.675 262.322 287.000 262.473 287.000 262.975 "/></g>
<g fill="#B8CEFFFF" stroke="#B8CEFFFF">
<path d="M 351.226 173.750 C 351.877 175.263 353.104 177.246 353.954 178.157 C 354.805 179.069 356.000 180.419 356.610 181.157 C 357.221 181.896 356.174 179.913 354.283 176.750 C 350.585 170.564 349.322 169.325 351.226 173.750 "/></g>
<g fill="#B8CEFFFF" stroke="#B8CEFFFF">
<path d="M 300.500 271.526 C 305.554 274.639 306.026 274.615 305.884 271.250 C 305.813 269.558 305.592 269.173 305.311 270.250 C 304.753 272.386 303.024 272.486 300.441 270.532 C 299.374 269.724 298.050 269.063 297.500 269.063 C 296.950 269.063 298.300 270.171 300.500 271.526 "/></g>
<g fill="#B8CEFFFF" stroke="#B8CEFFFF">
<path d="M 319.000 334.860 C 317.075 337.412 315.500 339.935 315.500 340.467 C 315.500 340.999 317.218 339.043 319.319 336.119 C 324.050 329.535 323.790 328.510 319.000 334.860 "/></g>
<g fill="#B8CEFFFF" stroke="#B8CEFFFF">
<path d="M 334.141 312.500 C 334.591 314.084 332.000 318.118 330.950 317.469 C 330.093 316.939 329.573 318.293 329.882 320.250 C 329.947 320.663 329.550 321.068 329.000 321.150 C 328.333 321.250 328.333 321.333 329.000 321.400 C 329.550 321.455 330.024 321.185 330.053 320.799 C 330.082 320.414 331.452 318.657 333.098 316.895 C 335.292 314.547 335.793 313.398 334.974 312.596 C 334.343 311.976 333.981 311.935 334.141 312.500 "/></g>
<g fill="#B8CEFFFF" stroke="#B8CEFFFF">
<path d="M 313.152 286.433 C 308.038 289.365 307.987 289.434 311.991 288.000 C 314.294 287.175 316.701 285.795 317.339 284.933 C 317.978 284.071 316.093 284.746 313.152 286.433 "/></g>
<g fill="#B8CEFFFF" stroke="#B8CEFFFF">
<path d="M 306.810 192.964 C 306.784 193.259 306.816 193.378 306.882 193.230 C 306.947 193.081 308.782 193.868 310.960 194.980 C 315.499 197.295 317.904 197.682 313.750 195.428 C 312.238 194.607 311.000 193.597 311.000 193.182 C 311.000 192.338 306.884 192.124 306.810 192.964 "/></g>
<g fill="#B8CEFFFF" stroke="#B8CEFFFF">
<path d="M 345.877 297.603 L 344.500 301.167 346.768 298.154 C 348.016 296.496 348.635 294.893 348.146 294.590 C 347.656 294.287 346.635 295.643 345.877 297.603 "/></g>
<g fill="#B8CEFFFF" stroke="#B8CEFFFF">
<path d="M 323.729 280.132 C 320.899 281.716 321.767 283.186 324.643 281.679 C 326.096 280.918 326.874 280.040 326.371 279.730 C 325.869 279.419 324.679 279.600 323.729 280.132 "/></g>
<g fill="#B8CEFFFF" stroke="#B8CEFFFF">
<path d="M 278.000 257.816 C 278.000 258.230 279.350 259.366 281.000 260.341 C 282.655 261.319 284.000 261.640 284.000 261.057 C 284.000 260.475 283.325 260.000 282.500 260.000 C 281.675 260.000 281.000 259.598 281.000 259.107 C 281.000 258.616 280.325 257.955 279.500 257.638 C 278.675 257.322 278.000 257.402 278.000 257.816 "/></g>
<g fill="#B8CEFFFF" stroke="#B8CEFFFF">
<path d="M 307.032 101.594 C 307.014 102.196 308.168 103.996 309.596 105.594 C 311.125 107.306 311.771 107.678 311.169 106.500 C 309.555 103.342 307.067 100.392 307.032 101.594 "/></g>
<g fill="#B8CEFFFF" stroke="#B8CEFFFF">
<path d="M 370.500 253.105 C 368.562 254.321 368.086 254.989 369.156 254.993 C 370.067 254.997 371.417 254.150 372.156 253.112 C 373.473 251.261 373.440 251.261 370.500 253.105 "/></g>
<g fill="#B8CEFFFF" stroke="#B8CEFFFF">
<path d="M 254.000 243.738 C 254.000 244.804 256.885 246.448 258.250 246.159 C 258.663 246.071 259.068 246.450 259.150 247.000 C 259.250 247.667 259.333 247.667 259.400 247.000 C 259.455 246.450 259.210 246.113 258.855 246.250 C 258.500 246.388 257.263 245.643 256.105 244.595 C 254.947 243.547 254.000 243.162 254.000 243.738 "/></g>
<g fill="#B8CEFFFF" stroke="#B8CEFFFF">
<path d="M 249.561 240.901 C 249.222 241.450 249.857 242.388 250.972 242.985 C 253.279 244.220 253.723 242.845 251.589 241.074 C 250.679 240.319 249.959 240.257 249.561 240.901 "/></g>
<g fill="#B8CEFFFF" stroke="#B8CEFFFF">
<path d="M 350.000 212.524 C 353.038 214.232 354.000 214.332 354.000 212.941 C 354.000 212.359 353.550 212.160 353.000 212.500 C 352.450 212.840 352.000 212.737 352.000 212.272 C 352.000 211.806 350.988 211.357 349.750 211.273 C 347.561 211.124 347.568 211.158 350.000 212.524 "/></g>
<g fill="#7799F2FF" stroke="#7799F2FF">
<path d="M 422.000 346.942 L 418.500 350.562 422.000 346.942 L 425.500 343.323 422.000 346.942 "/></g>
<g fill="#547FEFFF" stroke="#547FEFFF">
<path d="M 367.000 225.000 C 367.000 226.100 367.422 227.000 367.938 227.000 C 368.454 227.000 368.808 226.100 368.725 225.000 C 368.642 223.900 368.220 223.000 367.787 223.000 C 367.354 223.000 367.000 223.900 367.000 225.000 "/></g>
<g fill="#B8CEFFFF" stroke="#B8CEFFFF">
<path d="M 338.207 308.709 C 336.946 310.244 336.348 311.399 336.878 311.276 C 337.409 311.153 338.441 309.897 339.171 308.486 C 340.460 305.997 340.430 306.003 338.207 308.709 "/></g>
<g fill="#B8CEFFFF" stroke="#B8CEFFFF">
<path d="M 229.815 230.509 C 231.088 231.441 232.400 231.933 232.731 231.602 C 233.532 230.801 232.987 230.388 230.000 229.532 L 227.500 228.815 229.815 230.509 "/></g>
</svg>
